<svg width="141" height="29" viewBox="0 0 141 29" fill="none" xmlns="http://www.w3.org/2000/svg">
<g clip-path="url(#clip0_538_510)">
<path d="M18.1129 0H1.67103C0.734263 0 0 0.734263 0 1.67103V26.8632C0 27.8016 0.734263 28.5342 1.67103 28.5342C2.60779 28.5342 3.34534 27.7851 3.34534 26.8632V15.3109H13.8769C14.8153 15.3109 15.5479 14.5766 15.5479 13.6382C15.5479 12.6998 14.7989 12.005 13.8769 12.005H3.34534V3.30583H18.1129C19.0201 3.30583 19.7873 2.5584 19.7873 1.67267C19.7873 0.786946 19.0382 0 18.1129 0Z" fill="#D9D9D9"/>
<path d="M36.3611 0.000244141C28.4949 0.000244141 22.094 6.40118 22.094 14.269C22.094 22.1368 28.4949 28.5361 36.3611 28.5361C44.2273 28.5361 50.6315 22.1352 50.6315 14.269C50.6315 6.40282 44.2289 0.000244141 36.3611 0.000244141ZM36.3611 25.1924C30.3388 25.1924 25.4393 20.2913 25.4393 14.269C25.4393 8.24671 30.3388 3.30608 36.3611 3.30608C42.3834 3.30608 47.2861 8.22367 47.2861 14.269C47.2861 20.3143 42.3867 25.1924 36.3611 25.1924Z" fill="#D9D9D9"/>
<path d="M70.3458 3.30608C73.5068 3.30608 76.5113 4.66924 78.5841 7.04489C78.9051 7.42026 79.3628 7.63428 79.8402 7.63428C80.2485 7.63428 80.642 7.47952 80.9334 7.20953C81.266 6.928 81.4701 6.52959 81.5047 6.09002C81.5425 5.64222 81.396 5.20265 81.0931 4.85033C78.3766 1.7684 74.46 0.000244141 70.3458 0.000244141C62.478 0.000244141 56.0754 6.40118 56.0754 14.269C56.0754 22.1368 62.4764 28.5377 70.3458 28.5377C74.4715 28.5377 78.3947 26.7548 81.0898 23.6564C81.3927 23.3271 81.5425 22.8974 81.5063 22.4447C81.475 22.01 81.2758 21.6034 80.935 21.2906C80.6354 21.0354 80.2469 20.8955 79.8468 20.8955C79.3743 20.8955 78.9133 21.0947 78.5874 21.4519C76.5113 23.8309 73.5068 25.1957 70.3458 25.1957C64.3203 25.1957 59.4208 20.2946 59.4208 14.2706C59.4208 8.24671 64.3203 3.30772 70.3458 3.30772V3.30608Z" fill="#D9D9D9"/>
<path d="M101.23 0.000244141C93.3618 0.000244141 86.9592 6.40118 86.9592 14.269C86.9592 22.1368 93.3602 28.5361 101.23 28.5361C109.099 28.5361 115.497 22.1352 115.497 14.269C115.497 6.40282 109.097 0.000244141 101.23 0.000244141ZM101.23 25.1924C95.2041 25.1924 90.3046 20.2913 90.3046 14.269C90.3046 8.24671 95.2041 3.30608 101.23 3.30608C107.255 3.30608 112.155 8.22367 112.155 14.269C112.155 20.3143 107.252 25.1924 101.23 25.1924Z" fill="#FFBE02"/>
<path d="M131.443 12.2108L131.353 12.1878C127.194 11.116 124.84 10.3817 124.84 7.76406C124.84 5.6584 126.677 3.39305 130.707 3.39305C134.737 3.39305 136.621 5.6584 136.621 7.76406C136.621 8.70082 137.431 9.43673 138.473 9.43673C139.515 9.43673 140.325 8.70247 140.325 7.76406C140.325 3.94951 137.021 0.0888672 130.707 0.0888672C124.394 0.0888672 121.136 3.94951 121.136 7.76406C121.136 13.0126 126.157 14.3099 130.197 15.352L130.337 15.3882C134.779 16.5143 137.293 17.3029 137.293 20.3997C137.293 22.7506 135.233 25.281 130.707 25.281C126.182 25.281 124.166 22.7506 124.166 20.3997C124.166 19.4777 123.335 18.7286 122.314 18.7286C121.294 18.7286 120.462 19.4629 120.462 20.3997C120.462 24.4875 123.979 28.6247 130.707 28.6247C137.436 28.6247 140.998 24.4875 140.998 20.3997C140.998 14.6638 135.475 13.2463 131.442 12.2108H131.443Z" fill="#D9D9D9"/>
</g>
<defs>
<clipPath id="clip0_538_510">
<rect width="141" height="28.6248" fill="white"/>
</clipPath>
</defs>
</svg>
